# xmcd CD database file
#
# Track frame offsets:
#	150
#	22907
#	44185
#	62745
#	91307
#	113630
#	133032
#	155410
#	171970
#	190040
#	207450
#
# Disc length: 3131 seconds
#
# Revision: 0
# Processed by: cddbd v1.5.2PL0 Copyright (c) Steve Scherf et al.
# Submitted via: CDex 1.51
#
DISCID=960c390b
DTITLE=Harumi Kaneko - Try to Remember
DYEAR=1992
DGENRE=Jazz
TTITLE0=Try to Remember
TTITLE1=IF
TTITLE2=San Francisco Bay Blues
TTITLE3=More Than You Know
TTITLE4=Don't It Make My Brown Eyes Bule
TTITLE5=Smile
TTITLE6=The Five Pennies
TTITLE7=Route 66
TTITLE8=I'm Always Chasing Rainbows
TTITLE9=Love Me Tender
TTITLE10=Stars Up in The Sky
EXTD=YEAR: 1992
EXTT0=
EXTT1=
EXTT2=
EXTT3=
EXTT4=
EXTT5=
EXTT6=
EXTT7=
EXTT8=
EXTT9=
EXTT10=
PLAYORDER=
